<mxfile host="app.diagrams.net" modified="2024-02-16T09:40:54.831Z" agent="Mozilla/5.0 (X11; Linux x86_64) AppleWebKit/537.36 (KHTML, like Gecko) Chrome/117.0.0.0 Safari/537.36" version="23.1.5" etag="PoyoEBvO6soKvMk1ZGmL" type="github">
  <diagram name="Страница — 1" id="ubaxXS9rGoB6N7OK9tYm">
    <mxGraphModel>
      <root>
        <mxCell id="0" />
        <mxCell id="1" parent="0" />
      </root>
    </mxGraphModel>
  </diagram>
</mxfile>
